<?xml version="1.0" encoding="utf-8"?>
<!-- Generator: Adobe Illustrator 25.2.3, SVG Export Plug-In . SVG Version: 6.00 Build 0)  -->
<svg version="1.1" id="Layer_2_1_" xmlns="http://www.w3.org/2000/svg" xmlns:xlink="http://www.w3.org/1999/xlink" x="0px" y="0px"
	 viewBox="0 0 363.8 78" style="enable-background:new 0 0 363.8 78;" xml:space="preserve">
<style type="text/css">
	.st0{fill:#168ECE;}
	.st1{fill:#FFFFFF;}
	.st2{fill:none;stroke:#FFFFFF;stroke-width:0.5;}
	.st3{clip-path:url(#SVGID_2_);fill:none;stroke:#FFFFFF;stroke-width:0.5;}
	.st4{clip-path:url(#SVGID_4_);fill:none;stroke:#FFFFFF;stroke-width:0.5;}
	.st5{clip-path:url(#SVGID_6_);fill:none;stroke:#FFFFFF;stroke-width:0.5;}
	.st6{clip-path:url(#SVGID_8_);fill:none;stroke:#FFFFFF;stroke-width:0.5;}
	.st7{clip-path:url(#SVGID_10_);fill:none;stroke:#FFFFFF;stroke-width:0.5;}
	.st8{clip-path:url(#SVGID_12_);fill:none;stroke:#FFFFFF;stroke-width:0.5;}
	.st9{clip-path:url(#SVGID_14_);fill:none;stroke:#FFFFFF;stroke-width:0.5;}
	.st10{clip-path:url(#SVGID_16_);fill:none;stroke:#FFFFFF;stroke-width:0.5;}
	.st11{clip-path:url(#SVGID_18_);fill:none;stroke:#FFFFFF;stroke-width:0.5;}
	.st12{clip-path:url(#SVGID_20_);fill:none;stroke:#FFFFFF;stroke-width:0.5;}
	.st13{clip-path:url(#SVGID_22_);fill:none;stroke:#FFFFFF;stroke-width:0.5;}
	.st14{clip-path:url(#SVGID_24_);fill:none;stroke:#FFFFFF;stroke-width:0.5;}
	.st15{clip-path:url(#SVGID_26_);fill:none;stroke:#FFFFFF;stroke-width:0.5;}
	.st16{clip-path:url(#SVGID_28_);fill:none;stroke:#FFFFFF;stroke-width:0.5;}
	.st17{clip-path:url(#SVGID_30_);fill:none;stroke:#FFFFFF;stroke-width:0.5;}
	.st18{clip-path:url(#SVGID_32_);fill:none;stroke:#FFFFFF;stroke-width:0.5;}
</style>
<g>
	<path class="st0" d="M33.9,47.1h10.5c-2,4.3-5.5,6.5-10.5,6.5c-3.1,0-5.7-1.2-7.8-3.5c-2.1-2.4-3.2-5.1-3.2-8.3
		c0-4.5,1.6-8.5,4.8-11.9s7.1-5.1,11.6-5.1c4.9,0,9.1,1.6,12.6,4.8s5.2,7.3,5.2,12.4c0,4.4-1.1,8.5-3.4,12.3c-2.3,3.8-5,6.4-8.2,7.8
		h15.2c2.5-3.1,4.2-6.2,5.1-9.2c1-3.1,1.4-6.8,1.4-10.9c0-7.7-2.7-14.1-8-19.4s-12-8-19.9-8c-7.3,0-13.5,2.6-18.8,7.9
		s-8,11.8-8,19.5c0,5.8,2.1,10.9,6.2,15.4C23,61.7,28,64,33.9,64c3,0,6.2-0.7,9.5-2.1c3.3-1.4,6.3-3.9,8.7-7.6
		c2.5-3.7,3.8-7.4,3.8-11.1c0-0.6,0-1.2-0.1-1.7s-0.1-1.1-0.2-1.8c-0.1-0.7-0.3-1.8-0.6-3.1H33.9V47.1"/>
	<polyline class="st1" points="204.4,14.4 216.6,14.4 232.3,38.7 232.3,14.4 243.6,14.4 243.6,62 233.4,62 216,34.4 216,62 
		204.4,62 204.4,14.4 	"/>
	<polyline class="st1" points="204.4,14.4 216.6,14.4 232.3,38.7 232.3,14.4 243.6,14.4 243.6,62 233.4,62 216,34.4 216,62 
		204.4,62 204.4,14.4 	"/>
	<path class="st1" d="M245.6,38.1c0,13.3,8.2,24,22.7,24c14.5,0,22.7-10.6,22.7-24s-8.2-24-22.7-24
		C253.7,14.2,245.6,24.8,245.6,38.1 M257.5,38.1c0-6.8,3-13.7,10.7-13.7s10.7,6.8,10.7,13.7s-3,13.7-10.7,13.7S257.5,45,257.5,38.1z
		"/>
	<polyline class="st1" points="79.8,14.3 119.1,14.3 119.1,24.4 105.4,24.4 105.4,62 92.9,62 92.9,24.4 79.8,24.4 79.8,14.3 	"/>
	<polyline class="st1" points="121.1,14.3 158.1,14.3 158.1,24.3 133.3,24.3 133.3,32.3 156.3,32.3 156.3,42.1 133.3,42.1 133.3,52 
		158,52 158,62 121.1,62 121.1,14.3 	"/>
	<path class="st1" d="M192.4,43.5c-1.3,4.6-4.7,8.2-10.2,8.2c-7.6,0-10.5-6.8-10.5-13.6s2.9-13.6,10.5-13.6c5,0,8.8,3,10.2,7
		l10.1-5.6c-3.5-7-10.9-11.7-20.4-11.7c-14.2,0-22.3,10.6-22.3,23.9s8,23.9,22.3,23.9c9.8,0,16.8-5,20.1-12.4L192.4,43.5"/>
	<line class="st2" x1="338.5" y1="61.9" x2="338.5" y2="14.3"/>
	<line class="st2" x1="341.2" y1="14.3" x2="341.2" y2="61.9"/>
	<line class="st2" x1="343.9" y1="14.3" x2="343.9" y2="61.9"/>
	<line class="st2" x1="346.7" y1="14.3" x2="346.7" y2="61.9"/>
	<g>
		<g>
			<g>
				<defs>
					<path id="SVGID_1_" d="M335.5,61.9h-9.7c0,0,0-3.1,0-4.1c-2.9,3-6.7,4.1-10.1,4.1C302.3,61.9,293,51.3,293,38s9.4-24,22.7-24
						c9.2,0,14.1,2.2,19.7,10.5l-9.3,5.3c-2.1-3.8-5.4-6.3-10.1-6.3c-7.4,0-11.3,7.4-11.3,14.2s3.8,13.9,11.3,13.9
						c5.7,0,10.1-4.4,10.7-8.5h-9v-8.8h17.8L335.5,61.9"/>
				</defs>
				<clipPath id="SVGID_2_">
					<use xlink:href="#SVGID_1_"  style="overflow:visible;"/>
				</clipPath>
				<line class="st3" x1="293.9" y1="-0.4" x2="293.9" y2="76"/>
			</g>
		</g>
		<g>
			<g>
				<defs>
					<path id="SVGID_3_" d="M335.5,61.9h-9.7c0,0,0-3.1,0-4.1c-2.9,3-6.7,4.1-10.1,4.1C302.3,61.9,293,51.3,293,38s9.4-24,22.7-24
						c9.2,0,14.1,2.2,19.7,10.5l-9.3,5.3c-2.1-3.8-5.4-6.3-10.1-6.3c-7.4,0-11.3,7.4-11.3,14.2s3.8,13.9,11.3,13.9
						c5.7,0,10.1-4.4,10.7-8.5h-9v-8.8h17.8L335.5,61.9"/>
				</defs>
				<clipPath id="SVGID_4_">
					<use xlink:href="#SVGID_3_"  style="overflow:visible;"/>
				</clipPath>
				<line class="st4" x1="296.6" y1="-0.4" x2="296.6" y2="76"/>
			</g>
		</g>
		<g>
			<g>
				<defs>
					<path id="SVGID_5_" d="M335.5,61.9h-9.7c0,0,0-3.1,0-4.1c-2.9,3-6.7,4.1-10.1,4.1C302.3,61.9,293,51.3,293,38s9.4-24,22.7-24
						c9.2,0,14.1,2.2,19.7,10.5l-9.3,5.3c-2.1-3.8-5.4-6.3-10.1-6.3c-7.4,0-11.3,7.4-11.3,14.2s3.8,13.9,11.3,13.9
						c5.7,0,10.1-4.4,10.7-8.5h-9v-8.8h17.8L335.5,61.9"/>
				</defs>
				<clipPath id="SVGID_6_">
					<use xlink:href="#SVGID_5_"  style="overflow:visible;"/>
				</clipPath>
				<line class="st5" x1="299.3" y1="76" x2="299.3" y2="-0.4"/>
			</g>
		</g>
		<g>
			<g>
				<defs>
					<path id="SVGID_7_" d="M335.5,61.9h-9.7c0,0,0-3.1,0-4.1c-2.9,3-6.7,4.1-10.1,4.1C302.3,61.9,293,51.3,293,38s9.4-24,22.7-24
						c9.2,0,14.1,2.2,19.7,10.5l-9.3,5.3c-2.1-3.8-5.4-6.3-10.1-6.3c-7.4,0-11.3,7.4-11.3,14.2s3.8,13.9,11.3,13.9
						c5.7,0,10.1-4.4,10.7-8.5h-9v-8.8h17.8L335.5,61.9"/>
				</defs>
				<clipPath id="SVGID_8_">
					<use xlink:href="#SVGID_7_"  style="overflow:visible;"/>
				</clipPath>
				<line class="st6" x1="302.1" y1="-1.3" x2="302.1" y2="77.1"/>
			</g>
		</g>
		<g>
			<g>
				<defs>
					<path id="SVGID_9_" d="M335.5,61.9h-9.7c0,0,0-3.1,0-4.1c-2.9,3-6.7,4.1-10.1,4.1C302.3,61.9,293,51.3,293,38s9.4-24,22.7-24
						c9.2,0,14.1,2.2,19.7,10.5l-9.3,5.3c-2.1-3.8-5.4-6.3-10.1-6.3c-7.4,0-11.3,7.4-11.3,14.2s3.8,13.9,11.3,13.9
						c5.7,0,10.1-4.4,10.7-8.5h-9v-8.8h17.8L335.5,61.9"/>
				</defs>
				<clipPath id="SVGID_10_">
					<use xlink:href="#SVGID_9_"  style="overflow:visible;"/>
				</clipPath>
				<line class="st7" x1="304.8" y1="77.1" x2="304.8" y2="-1.3"/>
			</g>
		</g>
		<g>
			<g>
				<defs>
					<path id="SVGID_11_" d="M335.5,61.9h-9.7c0,0,0-3.1,0-4.1c-2.9,3-6.7,4.1-10.1,4.1C302.3,61.9,293,51.3,293,38s9.4-24,22.7-24
						c9.2,0,14.1,2.2,19.7,10.5l-9.3,5.3c-2.1-3.8-5.4-6.3-10.1-6.3c-7.4,0-11.3,7.4-11.3,14.2s3.8,13.9,11.3,13.9
						c5.7,0,10.1-4.4,10.7-8.5h-9v-8.8h17.8L335.5,61.9"/>
				</defs>
				<clipPath id="SVGID_12_">
					<use xlink:href="#SVGID_11_"  style="overflow:visible;"/>
				</clipPath>
				<line class="st8" x1="307.5" y1="-1.3" x2="307.5" y2="77.1"/>
			</g>
		</g>
		<g>
			<g>
				<defs>
					<path id="SVGID_13_" d="M335.5,61.9h-9.7c0,0,0-3.1,0-4.1c-2.9,3-6.7,4.1-10.1,4.1C302.3,61.9,293,51.3,293,38s9.4-24,22.7-24
						c9.2,0,14.1,2.2,19.7,10.5l-9.3,5.3c-2.1-3.8-5.4-6.3-10.1-6.3c-7.4,0-11.3,7.4-11.3,14.2s3.8,13.9,11.3,13.9
						c5.7,0,10.1-4.4,10.7-8.5h-9v-8.8h17.8L335.5,61.9"/>
				</defs>
				<clipPath id="SVGID_14_">
					<use xlink:href="#SVGID_13_"  style="overflow:visible;"/>
				</clipPath>
				<line class="st9" x1="310.2" y1="-1.3" x2="310.2" y2="77.1"/>
			</g>
		</g>
		<g>
			<g>
				<defs>
					<path id="SVGID_15_" d="M335.5,61.9h-9.7c0,0,0-3.1,0-4.1c-2.9,3-6.7,4.1-10.1,4.1C302.3,61.9,293,51.3,293,38s9.4-24,22.7-24
						c9.2,0,14.1,2.2,19.7,10.5l-9.3,5.3c-2.1-3.8-5.4-6.3-10.1-6.3c-7.4,0-11.3,7.4-11.3,14.2s3.8,13.9,11.3,13.9
						c5.7,0,10.1-4.4,10.7-8.5h-9v-8.8h17.8L335.5,61.9"/>
				</defs>
				<clipPath id="SVGID_16_">
					<use xlink:href="#SVGID_15_"  style="overflow:visible;"/>
				</clipPath>
				<line class="st10" x1="313" y1="-1.3" x2="313" y2="77.1"/>
			</g>
		</g>
		<g>
			<g>
				<defs>
					<path id="SVGID_17_" d="M335.5,61.9h-9.7c0,0,0-3.1,0-4.1c-2.9,3-6.7,4.1-10.1,4.1C302.3,61.9,293,51.3,293,38s9.4-24,22.7-24
						c9.2,0,14.1,2.2,19.7,10.5l-9.3,5.3c-2.1-3.8-5.4-6.3-10.1-6.3c-7.4,0-11.3,7.4-11.3,14.2s3.8,13.9,11.3,13.9
						c5.7,0,10.1-4.4,10.7-8.5h-9v-8.8h17.8L335.5,61.9"/>
				</defs>
				<clipPath id="SVGID_18_">
					<use xlink:href="#SVGID_17_"  style="overflow:visible;"/>
				</clipPath>
				<line class="st11" x1="315.7" y1="-1.3" x2="315.7" y2="77.1"/>
			</g>
		</g>
		<g>
			<g>
				<defs>
					<path id="SVGID_19_" d="M335.5,61.9h-9.7c0,0,0-3.1,0-4.1c-2.9,3-6.7,4.1-10.1,4.1C302.3,61.9,293,51.3,293,38s9.4-24,22.7-24
						c9.2,0,14.1,2.2,19.7,10.5l-9.3,5.3c-2.1-3.8-5.4-6.3-10.1-6.3c-7.4,0-11.3,7.4-11.3,14.2s3.8,13.9,11.3,13.9
						c5.7,0,10.1-4.4,10.7-8.5h-9v-8.8h17.8L335.5,61.9"/>
				</defs>
				<clipPath id="SVGID_20_">
					<use xlink:href="#SVGID_19_"  style="overflow:visible;"/>
				</clipPath>
				<line class="st12" x1="318.4" y1="77.1" x2="318.4" y2="-1.3"/>
			</g>
		</g>
		<g>
			<g>
				<defs>
					<path id="SVGID_21_" d="M335.5,61.9h-9.7c0,0,0-3.1,0-4.1c-2.9,3-6.7,4.1-10.1,4.1C302.3,61.9,293,51.3,293,38s9.4-24,22.7-24
						c9.2,0,14.1,2.2,19.7,10.5l-9.3,5.3c-2.1-3.8-5.4-6.3-10.1-6.3c-7.4,0-11.3,7.4-11.3,14.2s3.8,13.9,11.3,13.9
						c5.7,0,10.1-4.4,10.7-8.5h-9v-8.8h17.8L335.5,61.9"/>
				</defs>
				<clipPath id="SVGID_22_">
					<use xlink:href="#SVGID_21_"  style="overflow:visible;"/>
				</clipPath>
				<line class="st13" x1="321.1" y1="77.1" x2="321.1" y2="-1.3"/>
			</g>
		</g>
		<g>
			<g>
				<defs>
					<path id="SVGID_23_" d="M335.5,61.9h-9.7c0,0,0-3.1,0-4.1c-2.9,3-6.7,4.1-10.1,4.1C302.3,61.9,293,51.3,293,38s9.4-24,22.7-24
						c9.2,0,14.1,2.2,19.7,10.5l-9.3,5.3c-2.1-3.8-5.4-6.3-10.1-6.3c-7.4,0-11.3,7.4-11.3,14.2s3.8,13.9,11.3,13.9
						c5.7,0,10.1-4.4,10.7-8.5h-9v-8.8h17.8L335.5,61.9"/>
				</defs>
				<clipPath id="SVGID_24_">
					<use xlink:href="#SVGID_23_"  style="overflow:visible;"/>
				</clipPath>
				<line class="st14" x1="323.9" y1="77.1" x2="323.9" y2="-1.3"/>
			</g>
		</g>
		<g>
			<g>
				<defs>
					<path id="SVGID_25_" d="M335.5,61.9h-9.7c0,0,0-3.1,0-4.1c-2.9,3-6.7,4.1-10.1,4.1C302.3,61.9,293,51.3,293,38s9.4-24,22.7-24
						c9.2,0,14.1,2.2,19.7,10.5l-9.3,5.3c-2.1-3.8-5.4-6.3-10.1-6.3c-7.4,0-11.3,7.4-11.3,14.2s3.8,13.9,11.3,13.9
						c5.7,0,10.1-4.4,10.7-8.5h-9v-8.8h17.8L335.5,61.9"/>
				</defs>
				<clipPath id="SVGID_26_">
					<use xlink:href="#SVGID_25_"  style="overflow:visible;"/>
				</clipPath>
				<line class="st15" x1="326.6" y1="77.1" x2="326.6" y2="-1.3"/>
			</g>
		</g>
		<g>
			<g>
				<defs>
					<path id="SVGID_27_" d="M335.5,61.9h-9.7c0,0,0-3.1,0-4.1c-2.9,3-6.7,4.1-10.1,4.1C302.3,61.9,293,51.3,293,38s9.4-24,22.7-24
						c9.2,0,14.1,2.2,19.7,10.5l-9.3,5.3c-2.1-3.8-5.4-6.3-10.1-6.3c-7.4,0-11.3,7.4-11.3,14.2s3.8,13.9,11.3,13.9
						c5.7,0,10.1-4.4,10.7-8.5h-9v-8.8h17.8L335.5,61.9"/>
				</defs>
				<clipPath id="SVGID_28_">
					<use xlink:href="#SVGID_27_"  style="overflow:visible;"/>
				</clipPath>
				<line class="st16" x1="329.3" y1="-1.3" x2="329.3" y2="77.1"/>
			</g>
		</g>
		<g>
			<g>
				<defs>
					<path id="SVGID_29_" d="M335.5,61.9h-9.7c0,0,0-3.1,0-4.1c-2.9,3-6.7,4.1-10.1,4.1C302.3,61.9,293,51.3,293,38s9.4-24,22.7-24
						c9.2,0,14.1,2.2,19.7,10.5l-9.3,5.3c-2.1-3.8-5.4-6.3-10.1-6.3c-7.4,0-11.3,7.4-11.3,14.2s3.8,13.9,11.3,13.9
						c5.7,0,10.1-4.4,10.7-8.5h-9v-8.8h17.8L335.5,61.9"/>
				</defs>
				<clipPath id="SVGID_30_">
					<use xlink:href="#SVGID_29_"  style="overflow:visible;"/>
				</clipPath>
				<line class="st17" x1="332" y1="77.1" x2="332" y2="-1.3"/>
			</g>
		</g>
		<g>
			<g>
				<defs>
					<path id="SVGID_31_" d="M335.5,61.9h-9.7c0,0,0-3.1,0-4.1c-2.9,3-6.7,4.1-10.1,4.1C302.3,61.9,293,51.3,293,38s9.4-24,22.7-24
						c9.2,0,14.1,2.2,19.7,10.5l-9.3,5.3c-2.1-3.8-5.4-6.3-10.1-6.3c-7.4,0-11.3,7.4-11.3,14.2s3.8,13.9,11.3,13.9
						c5.7,0,10.1-4.4,10.7-8.5h-9v-8.8h17.8L335.5,61.9"/>
				</defs>
				<clipPath id="SVGID_32_">
					<use xlink:href="#SVGID_31_"  style="overflow:visible;"/>
				</clipPath>
				<line class="st18" x1="334.8" y1="-1.3" x2="334.8" y2="77.1"/>
			</g>
		</g>
	</g>
</g>
</svg>
